<svg id="svg" version="1.1" xmlns="http://www.w3.org/2000/svg" xmlns:xlink="http://www.w3.org/1999/xlink" width="400" height="400" viewBox="0, 0, 400,400"><g id="svgg"><path id="path0" d="M155.082 93.399 C 148.073 94.329,147.566 94.491,139.626 98.345 C 135.165 100.509,129.073 107.483,127.789 111.894 C 125.373 120.193,125.580 110.730,125.587 212.565 C 125.594 313.502,125.425 306.191,127.784 307.266 C 129.691 308.134,144.357 306.238,147.948 304.659 C 149.627 303.921,151.858 303.005,152.907 302.623 C 156.781 301.213,162.607 294.588,164.008 290.000 C 165.770 284.235,165.995 280.639,165.998 258.246 C 166.001 232.542,165.384 235.436,172.389 228.243 C 183.702 216.626,181.805 216.253,194.701 232.635 C 210.960 253.290,213.937 257.067,219.400 263.981 C 222.480 267.879,227.260 273.933,230.022 277.434 C 232.784 280.935,237.428 286.810,240.344 290.489 C 250.358 303.128,258.205 307.676,270.000 307.677 C 279.680 307.678,292.730 299.854,291.872 294.564 C 291.569 292.701,292.675 294.116,250.195 241.200 C 211.258 192.697,212.397 194.164,212.403 192.520 C 212.407 191.228,213.887 189.502,219.524 184.210 C 277.697 129.605,279.527 127.724,282.089 119.910 L 283.379 115.973 282.689 113.343 C 281.165 107.534,277.236 102.025,270.342 96.032 C 265.872 92.147,266.802 91.615,250.143 107.600 C 188.418 166.830,171.076 183.397,169.838 184.315 C 168.329 185.434,167.184 185.325,166.516 184.000 C 166.120 183.214,166.011 173.682,166.006 139.487 C 165.999 91.577,166.112 93.735,163.583 92.854 C 162.867 92.604,162.172 92.424,162.040 92.454 C 161.908 92.483,158.777 92.908,155.082 93.399 " stroke="none" fill="#fafbfb" fill-rule="evenodd"></path><path id="path1" d="M181.196 0.605 C 180.920 0.937,179.863 1.576,178.847 2.025 C 177.831 2.474,176.460 3.360,175.800 3.994 C 174.467 5.275,170.929 7.235,168.549 8.010 C 167.697 8.288,166.476 9.058,165.835 9.722 C 164.649 10.951,162.567 12.213,158.104 14.409 C 156.732 15.084,155.428 15.974,155.208 16.385 C 154.988 16.797,153.920 17.428,152.835 17.789 C 151.749 18.149,150.644 18.706,150.378 19.026 C 150.113 19.346,148.884 19.895,147.648 20.246 C 146.023 20.707,144.997 21.315,143.946 22.442 C 142.955 23.504,142.151 24.000,141.420 24.000 C 140.196 24.000,139.076 24.523,137.510 25.826 C 136.910 26.324,135.898 26.847,135.262 26.986 C 134.625 27.126,133.189 27.996,132.071 28.920 C 129.490 31.052,127.442 32.327,126.074 32.655 C 124.399 33.056,122.942 33.895,121.721 35.161 C 120.607 36.316,114.778 39.600,113.842 39.600 C 113.572 39.600,112.805 40.135,112.136 40.788 C 111.468 41.442,110.039 42.354,108.961 42.815 C 107.882 43.276,106.640 43.980,106.200 44.378 C 105.760 44.776,104.682 45.230,103.804 45.387 C 102.701 45.584,101.761 46.142,100.763 47.191 C 99.761 48.244,98.644 48.905,97.112 49.350 C 95.898 49.703,94.673 50.271,94.391 50.611 C 94.108 50.952,92.997 51.609,91.921 52.072 C 90.846 52.535,89.740 53.236,89.463 53.632 C 88.808 54.566,83.809 57.394,81.860 57.932 C 81.025 58.163,79.549 59.082,78.580 59.976 C 77.611 60.869,76.479 61.600,76.065 61.600 C 75.651 61.600,74.645 62.052,73.830 62.605 C 73.015 63.158,71.770 63.853,71.062 64.148 C 70.355 64.444,69.241 65.252,68.589 65.943 C 67.874 66.701,66.599 67.434,65.382 67.788 C 64.272 68.111,62.935 68.831,62.412 69.387 C 61.889 69.944,61.215 70.400,60.914 70.400 C 60.038 70.400,57.181 71.984,56.945 72.600 C 56.732 73.155,49.720 76.800,48.865 76.800 C 48.624 76.800,47.515 77.610,46.400 78.600 C 45.285 79.590,44.050 80.400,43.655 80.400 C 43.260 80.400,42.141 80.918,41.169 81.551 C 40.196 82.184,38.687 82.830,37.816 82.985 C 36.646 83.194,35.691 83.809,34.165 85.334 C 33.028 86.470,30.366 89.098,28.249 91.173 C 26.132 93.248,24.400 95.082,24.400 95.249 C 24.400 95.415,23.686 96.377,22.813 97.385 C 21.123 99.337,20.000 102.318,20.000 104.850 C 20.000 105.692,19.604 107.025,19.100 107.877 L 18.200 109.400 18.078 198.800 C 17.954 289.991,17.977 291.619,19.422 292.818 C 19.752 293.092,20.000 293.994,20.000 294.923 C 20.000 297.780,21.126 300.889,22.829 302.734 C 23.693 303.669,24.400 304.608,24.400 304.819 C 24.400 305.993,36.207 316.757,37.976 317.196 C 38.979 317.445,40.430 318.068,41.200 318.581 C 41.970 319.094,43.276 319.728,44.103 319.989 C 44.930 320.250,45.791 320.809,46.016 321.231 C 46.434 322.010,49.144 323.594,50.084 323.607 C 50.368 323.611,51.392 324.151,52.360 324.807 C 53.328 325.463,54.408 326.002,54.760 326.004 C 55.112 326.007,56.135 326.712,57.033 327.571 C 57.940 328.438,59.375 329.324,60.259 329.562 C 61.135 329.798,62.260 330.425,62.759 330.956 C 63.258 331.487,64.418 332.111,65.336 332.342 C 66.349 332.597,67.549 333.322,68.382 334.181 C 69.138 334.962,69.956 335.600,70.200 335.600 C 70.444 335.600,71.534 336.166,72.622 336.858 C 73.710 337.549,75.180 338.276,75.888 338.473 C 76.596 338.670,77.815 339.434,78.596 340.170 C 79.377 340.907,80.597 341.720,81.308 341.977 C 83.654 342.825,88.177 345.309,89.571 346.515 C 90.325 347.167,91.582 347.968,92.364 348.294 C 93.146 348.621,94.225 349.234,94.762 349.656 C 95.298 350.078,96.504 350.616,97.441 350.852 C 98.505 351.120,99.606 351.788,100.372 352.629 C 101.200 353.539,102.322 354.188,103.826 354.625 C 105.051 354.981,106.147 355.517,106.262 355.816 C 106.377 356.116,107.310 356.673,108.335 357.054 C 109.361 357.435,110.851 358.322,111.648 359.025 C 112.444 359.728,113.794 360.532,114.648 360.811 C 115.501 361.090,116.827 361.742,117.593 362.259 C 118.359 362.777,119.150 363.200,119.351 363.200 C 119.552 363.200,120.568 363.996,121.609 364.970 C 122.849 366.130,124.213 366.951,125.566 367.353 C 126.701 367.690,128.098 368.334,128.669 368.783 C 129.240 369.232,129.920 369.600,130.179 369.600 C 130.438 369.600,131.179 370.163,131.825 370.852 C 132.471 371.541,133.810 372.462,134.800 372.900 C 135.790 373.338,137.162 374.116,137.849 374.630 C 138.536 375.143,139.967 375.782,141.029 376.049 C 142.339 376.379,143.418 377.011,144.380 378.012 C 145.320 378.990,146.320 379.584,147.338 379.770 C 148.185 379.924,149.607 380.579,150.498 381.225 C 151.390 381.871,152.436 382.400,152.822 382.400 C 153.208 382.400,154.261 383.016,155.162 383.769 C 156.063 384.521,158.481 385.966,160.534 386.978 C 162.588 387.990,164.793 389.371,165.434 390.045 C 166.695 391.371,168.406 392.400,169.351 392.400 C 170.215 392.400,174.773 395.131,176.400 396.623 C 177.170 397.329,178.461 398.117,179.268 398.374 C 180.075 398.631,180.952 399.102,181.217 399.420 C 182.077 400.457,218.147 400.267,219.271 399.220 C 219.731 398.791,220.612 398.329,221.227 398.194 C 221.843 398.059,223.123 397.273,224.073 396.447 C 226.200 394.597,229.749 392.580,231.540 392.202 C 232.310 392.039,233.512 391.267,234.368 390.385 C 235.187 389.541,236.384 388.722,237.028 388.564 C 237.673 388.406,239.100 387.785,240.200 387.184 C 241.300 386.584,242.700 385.977,243.310 385.836 C 243.921 385.695,245.091 384.981,245.910 384.250 C 246.730 383.519,248.300 382.463,249.400 381.905 C 253.898 379.621,254.984 378.942,256.078 377.733 C 256.838 376.893,257.757 376.376,258.803 376.199 C 259.671 376.053,260.971 375.501,261.691 374.973 C 262.411 374.445,263.739 373.667,264.641 373.246 C 265.544 372.824,266.894 371.954,267.641 371.313 C 269.449 369.763,273.086 367.769,275.091 367.229 C 276.026 366.978,277.406 366.118,278.356 365.197 C 279.261 364.318,280.246 363.600,280.545 363.600 C 280.844 363.600,281.788 363.124,282.644 362.543 C 283.500 361.961,284.944 361.231,285.853 360.921 C 286.763 360.611,288.205 359.781,289.059 359.078 C 290.394 357.980,293.506 356.297,298.205 354.132 C 298.867 353.827,299.751 353.069,300.168 352.448 C 300.695 351.663,301.514 351.168,302.853 350.825 C 303.913 350.554,305.192 350.007,305.696 349.610 C 306.201 349.213,307.240 348.615,308.007 348.282 C 308.773 347.948,310.108 347.028,310.973 346.237 C 311.838 345.447,312.785 344.800,313.079 344.800 C 313.372 344.800,314.554 344.277,315.706 343.638 C 316.858 342.999,318.358 342.361,319.039 342.220 C 319.721 342.078,320.891 341.324,321.639 340.542 C 322.388 339.761,323.900 338.683,325.000 338.147 C 328.969 336.214,331.275 334.836,332.185 333.854 C 332.694 333.305,333.843 332.658,334.737 332.417 C 335.632 332.176,336.867 331.568,337.482 331.065 C 338.097 330.563,339.410 329.918,340.400 329.631 C 341.556 329.297,342.714 328.555,343.639 327.555 C 344.559 326.560,345.431 326.000,346.060 326.000 C 346.601 326.000,347.844 325.498,348.822 324.883 C 349.800 324.269,351.422 323.457,352.426 323.078 C 353.431 322.700,354.861 321.762,355.605 320.995 C 356.348 320.228,357.167 319.600,357.423 319.600 C 357.679 319.600,358.540 319.158,359.336 318.618 C 360.132 318.077,361.514 317.439,362.406 317.198 C 363.463 316.914,364.613 316.141,365.704 314.981 C 366.626 314.001,367.584 313.200,367.834 313.200 C 368.601 313.200,371.841 310.116,374.045 307.288 C 375.197 305.809,376.729 303.970,377.450 303.200 C 378.894 301.657,380.000 299.348,380.000 297.872 C 380.000 297.348,380.428 296.113,380.952 295.129 C 382.848 291.563,382.800 294.021,382.800 199.864 C 382.800 104.369,382.869 107.909,380.938 104.962 C 380.572 104.402,380.127 103.030,379.951 101.913 C 379.605 99.726,379.093 98.878,375.400 94.381 C 371.390 89.498,369.900 87.965,368.418 87.203 C 367.638 86.802,366.460 85.901,365.800 85.201 C 364.523 83.847,362.809 82.800,361.868 82.800 C 361.066 82.800,357.250 80.447,355.187 78.681 C 354.235 77.867,353.234 77.200,352.962 77.200 C 352.690 77.200,351.109 76.480,349.448 75.600 C 347.787 74.720,346.099 74.000,345.697 74.000 C 345.294 74.000,344.304 73.303,343.497 72.451 C 342.532 71.433,341.435 70.753,340.293 70.465 C 339.338 70.225,338.027 69.572,337.379 69.014 C 336.730 68.456,335.599 67.887,334.865 67.749 C 334.131 67.611,332.741 66.815,331.776 65.979 C 330.811 65.144,329.612 64.331,329.111 64.173 C 328.610 64.014,327.660 63.475,327.000 62.974 C 326.340 62.472,325.328 61.945,324.751 61.801 C 324.175 61.657,323.016 60.836,322.176 59.976 C 321.337 59.116,320.009 58.213,319.225 57.969 C 316.645 57.167,311.409 54.474,310.456 53.460 C 309.942 52.912,308.954 52.233,308.260 51.950 C 307.567 51.668,306.200 50.933,305.222 50.318 C 304.244 49.703,303.037 49.200,302.540 49.200 C 302.003 49.200,300.936 48.489,299.905 47.443 C 298.910 46.434,297.544 45.512,296.698 45.278 C 295.887 45.054,294.723 44.519,294.111 44.088 C 293.500 43.657,292.583 43.175,292.074 43.017 C 291.564 42.859,290.574 42.232,289.874 41.624 C 289.173 41.016,286.620 39.561,284.200 38.391 C 281.780 37.221,279.061 35.595,278.158 34.777 C 277.130 33.846,275.672 33.045,274.258 32.634 C 273.016 32.273,272.000 31.830,272.000 31.650 C 272.000 31.469,271.290 31.002,270.423 30.611 C 269.556 30.219,268.204 29.311,267.419 28.592 C 266.634 27.873,265.564 27.177,265.042 27.046 C 264.520 26.915,263.153 26.176,262.006 25.404 C 260.792 24.587,259.426 24.000,258.739 24.000 C 257.891 24.000,257.181 23.587,256.216 22.533 C 254.915 21.114,253.775 20.406,249.266 18.216 C 248.092 17.646,246.703 16.671,246.180 16.049 C 245.601 15.361,244.366 14.647,243.025 14.225 C 241.814 13.844,240.406 13.205,239.897 12.805 C 239.388 12.405,238.252 11.883,237.372 11.646 C 236.466 11.402,235.176 10.600,234.397 9.797 C 233.641 9.017,232.298 8.168,231.411 7.910 C 229.160 7.255,225.134 5.009,223.973 3.760 C 223.438 3.185,222.055 2.293,220.900 1.779 C 219.745 1.265,218.800 0.654,218.800 0.422 C 218.800 -0.329,181.822 -0.149,181.196 0.605 M163.583 92.854 C 166.112 93.735,165.999 91.577,166.006 139.487 C 166.011 173.682,166.120 183.214,166.516 184.000 C 167.184 185.325,168.329 185.434,169.838 184.315 C 171.076 183.397,188.418 166.830,250.143 107.600 C 266.802 91.615,265.872 92.147,270.342 96.032 C 277.236 102.025,281.165 107.534,282.689 113.343 L 283.379 115.973 282.089 119.910 C 279.527 127.724,277.697 129.605,219.524 184.210 C 213.887 189.502,212.407 191.228,212.403 192.520 C 212.397 194.164,211.258 192.697,250.195 241.200 C 292.675 294.116,291.569 292.701,291.872 294.564 C 292.730 299.854,279.680 307.678,270.000 307.677 C 258.205 307.676,250.358 303.128,240.344 290.489 C 237.428 286.810,232.784 280.935,230.022 277.434 C 227.260 273.933,222.480 267.879,219.400 263.981 C 213.937 257.067,210.960 253.290,194.701 232.635 C 181.805 216.253,183.702 216.626,172.389 228.243 C 165.384 235.436,166.001 232.542,165.998 258.246 C 165.995 280.639,165.770 284.235,164.008 290.000 C 162.607 294.588,156.781 301.213,152.907 302.623 C 151.858 303.005,149.627 303.921,147.948 304.659 C 144.357 306.238,129.691 308.134,127.784 307.266 C 125.425 306.191,125.594 313.502,125.587 212.565 C 125.580 110.730,125.373 120.193,127.789 111.894 C 129.073 107.483,135.165 100.509,139.626 98.345 C 147.566 94.491,148.073 94.329,155.082 93.399 C 158.777 92.908,161.908 92.483,162.040 92.454 C 162.172 92.424,162.867 92.604,163.583 92.854 " stroke="none" fill="#3bd3dc" fill-rule="evenodd"></path></g></svg>